<?xml version="1.0" encoding="UTF-8"?>
<svg version="1.1" viewBox="0 0 2048 1826.5" xmlns="http://www.w3.org/2000/svg">
 <g transform="translate(-145.85 1113.5)">
  <g transform="matrix(4.1843 -.50712 .50712 4.1843 -709.68 -2079)">
   <rect x="189.35" y="346.47" width="399.4" height="299.4" color="#000000" fill="#fff" stroke="#ccc" stroke-width=".60002"/>
   <rect x="209.05" y="366.17" width="360" height="260" color="#000000" fill="#0039a1"/>
   <path d="m209.05 555.77c158.02 73.336 240.89-30.827 360-28v98.396h-360z" color="#000000" fill="#008a54"/>
   <path d="m294.29 438.79c0 15.385-12.472 27.857-27.857 27.857s-27.857-12.472-27.857-27.857 12.472-27.857 27.857-27.857 27.857 12.472 27.857 27.857z" color="#000000" fill="#f9f9f9"/>
  </g>
  <g transform="matrix(3.8741 -1.6606 1.6606 3.8741 -1161.3 -1476.4)">
   <rect x="189.35" y="346.47" width="399.4" height="299.4" color="#000000" fill="#fff" stroke="#ccc" stroke-width=".59995"/>
   <rect x="209.05" y="366.17" width="360" height="260" color="#000000" fill="#55d3eb"/>
   <path d="m209.05 555.77c158.02 73.336 240.89-30.827 360-28v98.396h-360z" color="#000000" fill="#1cbe5e"/>
   <path d="m294.29 438.79c0 15.385-12.472 27.857-27.857 27.857s-27.857-12.472-27.857-27.857 12.472-27.857 27.857-27.857 27.857 12.472 27.857 27.857z" color="#000000" fill="#ffff83"/>
  </g>
 </g>
</svg>
