<svg xmlns="http://www.w3.org/2000/svg" viewBox="0 0 500 500"><defs><linearGradient id="a" x1="0" x2="1" y1=".5" y2=".5"><stop offset="0%" stop-color="#31e8e8" stop-opacity=".6"/><stop offset="100%" stop-color="#31e8e8" stop-opacity=".6"/></linearGradient><linearGradient id="b" x1="0" x2="1" y1=".5" y2=".5"><stop offset="0%" stop-color="#31e89f" stop-opacity=".6"/><stop offset="100%" stop-color="#31e89f" stop-opacity=".6"/></linearGradient><linearGradient id="c" x1="0" x2="1" y1=".5" y2=".5"><stop offset="0%" stop-color="#31c6e8" stop-opacity=".6"/><stop offset="100%" stop-color="#31c6e8" stop-opacity=".6"/></linearGradient><linearGradient id="d" x1="0" x2="1" y1=".5" y2=".5"><stop offset="0%"/><stop offset="100%"/></linearGradient></defs><g><path fill="none" d="M-1-1h502v502H-1z"/></g><g><g stroke="null"><g class="svg-clip svg-visible"><path fill="none" d="M173.246407-7.101794h510v443h-510z" class="svg-hitbox" transform="matrix(-.49474 -.2663 .28264 -.49514 342.57564255 541.03635371)"/><g transform="matrix(-.49474 -.2663 .28264 -.49514 342.57564255 541.03635371)"><svg x="173.246407" y="-7.101794" class="thumb" viewBox="-5 25.16 510 443.015"><g><path fill="url('#a')" d="M125 463.175L0 246.667 125 30.16h249.999L500 246.667 374.999 463.175z"/></g></svg></g></g><g class="svg-clip svg-visible"><path fill="none" d="M173.246407-7.101794h510v443h-510z" class="svg-hitbox" transform="matrix(-.49474 -.2663 .28264 -.49514 339.6907832 398.1232496)"/><g transform="matrix(-.49474 -.2663 .28264 -.49514 339.6907832 398.1232496)"><svg x="173.246407" y="-7.101794" class="thumb" viewBox="-5 25.16 510 443.015"><g><path fill="url('#b')" d="M125 463.175L0 246.667 125 30.16h249.999L500 246.667 374.999 463.175z"/></g></svg></g></g><g class="svg-clip svg-visible"><path fill="none" d="M167.353938-3.932642h510v443h-510z" class="svg-hitbox" transform="matrix(-.4858 -.2663 .27753 -.49514 459.04809264 466.89260677)"/><g transform="matrix(-.4858 -.2663 .27753 -.49514 459.04809264 466.89260677)"><svg x="167.353938" y="-3.932642" class="thumb" viewBox="-5 25.16 510 443.015"><g><path fill="url('#c')" d="M125 463.175L0 246.667 125 30.16h249.999L500 246.667 374.999 463.175z"/></g></svg></g></g><g class="svg-text svg-visible"><path fill="none" d="M-74.939409 86.800109c17.45117-1 57.45117-1 74.90234 0" transform="matrix(2.3399 0 0 2.34172 325.0734928 152.80546526)"/><path fill="url('#d')" d="M-33.239409 75.550109v-45.75q0-10.94 5.57-15.77h0q5.71-4.94 18.31-4.94h2.97v35.11q0 22.71-12.98 29.1h0q-4.54 2.25-10.89 2.25h0-2.98zm-8.5 0h-3.02q-12.26 0-18.27-8.54h0q-5.56-7.92-5.56-22.81h0v-35.11h2.98q12.59 0 18.31 4.94h0q5.56 4.83 5.56 15.77h0v45.75z" transform="matrix(2.3399 0 0 2.34172 325.0734928 152.80546526)"/></g></g></g></svg>